# xmcd CD database file
#
# Track frame offsets:
#	150
#	17362
#	42530
#	63263
#	83437
#	107006
#	124486
#	144200
#	165477
#	189082
#	207466
#
# Disc length: 3219 seconds
#
# Revision: 0
# Processed by: cddbd v1.5.2PL0 Copyright (c) Steve Scherf et al.
# Submitted via: CDex 1.70beta2
#
DISCID=870c910b
DTITLE=Rigmor Gustafsson - Come Home
DYEAR=2019
DGENRE=Jazz
TTITLE0=Big Yellow Taxi
TTITLE1=I Think of You
TTITLE2=Take a Little Turn
TTITLE3=The Light Years
TTITLE4=This Time
TTITLE5=Wuthering Heights
TTITLE6=Twist in My Sobriety
TTITLE7=Lovely
TTITLE8=Winter Doesn't End
TTITLE9=Enjoy the Day
TTITLE10=Come Home
EXTD=YEAR: 2019
EXTT0=
EXTT1=
EXTT2=
EXTT3=
EXTT4=
EXTT5=
EXTT6=
EXTT7=
EXTT8=
EXTT9=
EXTT10=
PLAYORDER=
